#N canvas 88 339 400 352 10;
#X obj 119 104 loadbang;
#X obj 105 130 print;
#X obj 145 130 f 63;
#X obj 145 151 noteout 7;
#X obj 74 102 r spam;
#X obj 41 130 s eggs;
#X connect 0 0 1 0;
#X connect 0 0 2 0;
#X connect 2 0 3 0;
#X connect 4 0 1 0;
#X connect 4 0 5 0;
