#N canvas 186 303 450 300 10;
#X obj 41 85 metro 500;
#X msg 64 120 60;
#X obj 106 217 noteout;
#X floatatom 161 183 5 0 0 0 - - -, f 5;
#X obj 113 120 nbx 5 14 127 127 0 1 empty empty empty 0 -8 0 10 -262144
-1 -1 127 256;
#X obj 188 126 nbx 5 14 500 500 0 1 empty empty empty 0 -8 0 10 -262144
-1 -1 500 256;
#X obj 36 34 nbx 5 14 1 1 0 1 empty empty empty 0 -8 0 10 -262144 -1
-1 1 256;
#X obj 75 153 makenote 60 500;
#X connect 0 0 1 0;
#X connect 1 0 7 0;
#X connect 3 0 2 2;
#X connect 4 0 7 1;
#X connect 5 0 7 2;
#X connect 6 0 0 0;
#X connect 7 0 2 0;
#X connect 7 1 2 1;
