#N canvas 865 361 450 300 10;
#X obj 52 34 inlet;
#X obj 54 314 outlet~;
#X obj 55 120 mtof;
#X obj 54 275 *~;
#X obj 164 203 / 127;
#X obj 52 66 unpack 0 0;
#X obj 55 156 phasor~;
#X obj 116 160 adsr;
#X obj 55 237 *~;
#X obj 174 125 sel 0;
#X obj 55 178 -~ 0.5;
#X connect 0 0 5 0;
#X connect 2 0 6 0;
#X connect 3 0 1 0;
#X connect 4 0 3 1;
#X connect 5 0 2 0;
#X connect 5 1 7 0;
#X connect 5 1 9 0;
#X connect 6 0 10 0;
#X connect 7 0 8 1;
#X connect 8 0 3 0;
#X connect 9 1 4 0;
#X connect 10 0 8 0;
